<svg xmlns="http://www.w3.org/2000/svg" width="414.045" height="394.999" viewBox="0 0 414.045 394.999">
    <g data-name="Group 21109">
        <g data-name="Business Plan-bro">
            <path data-name="Path 21126" d="M308.981 421.887s85.081 3.978 138.9-92.173S438.373 145.117 340.55 126 193.992 35.132 106.8 90.064 68.064 437.546 308.981 421.887z" transform="translate(-57.985 -69.746)" style="fill:#007bc0"/>
            <path data-name="Path 21127" d="M308.981 421.887s85.081 3.978 138.9-92.173S438.373 145.117 340.55 126 193.992 35.132 106.8 90.064 68.064 437.546 308.981 421.887z" transform="translate(-57.985 -69.746)" style="opacity:.8;fill:#fff"/>
            <g transform="translate(4.047 369.581)">
                <ellipse data-name="Ellipse 510" cx="204.999" cy="12.709" rx="204.999" ry="12.709" style="fill:#007bc0"/>
                <ellipse data-name="Ellipse 511" cx="204.999" cy="12.709" rx="204.999" ry="12.709" style="opacity:.7;fill:#fff"/>
            </g>
            <path data-name="Path 21128" d="m291.13 114.861-.59 5 2.71.962a22.169 22.169 0 0 0 .71 5.081l-2.349 1.7 1.978 4.644 2.852-.535a22.076 22.076 0 0 0 3.147 4.043l-1.191 2.666 4.043 3.016 2.185-1.858a21.571 21.571 0 0 0 4.753 1.923l.306 2.9 4.994.6.973-2.721a22.171 22.171 0 0 0 5.081-.71l1.716 2.338 4.655-2-.514-2.841a22.1 22.1 0 0 0 4.032-3.147l2.666 1.191 3.016-4.043-1.869-2.185a21.275 21.275 0 0 0 1.923-4.743l2.9-.306.6-5-2.721-.973a21.5 21.5 0 0 0-.71-5.07l2.36-1.716-1.989-4.644-2.841.525a22.159 22.159 0 0 0-3.158-4.032l1.18-2.655L327.9 99.3l-2.185 1.869a22.422 22.422 0 0 0-4.721-1.923l-.306-2.9-5-.59-.973 2.71a22.007 22.007 0 0 0-5.07.721l-1.716-2.349-4.644 1.978.525 2.841a22.073 22.073 0 0 0-4.021 3.1l-2.655-1.18-3.027 4.043 1.869 2.185a21.667 21.667 0 0 0-1.923 4.753zm11.616 4.01a12.523 12.523 0 1 1 10.927 13.911 12.523 12.523 0 0 1-10.927-13.911z" transform="translate(-37.205 -67.334)" style="stroke-width:1.571px;stroke-linejoin:round;stroke:#263238;fill:none"/>
            <path data-name="Path 21129" d="m171.655 227.413-.535 4.535 2.459.874a19.876 19.876 0 0 0 .645 4.6l-2.185 1.552 1.792 4.207 2.579-.492a20.206 20.206 0 0 0 2.852 3.661l-1.093 2.415 3.748 2.754 1.978-1.694a19.354 19.354 0 0 0 4.305 1.748l.273 2.623 4.535.546.874-2.47a19.67 19.67 0 0 0 4.6-.645l1.552 2.131 4.2-1.8-.459-2.623a20.2 20.2 0 0 0 3.661-2.852l2.415 1.093 2.732-3.65-1.694-2a19.582 19.582 0 0 0 1.748-4.294l2.623-.284.535-4.535-2.459-.874a19.878 19.878 0 0 0-.645-4.6l2.185-1.552-1.8-4.207-2.568.47a20.161 20.161 0 0 0-2.874-3.639l1.093-2.415-3.748-2.721-1.989 1.694a19.463 19.463 0 0 0-4.284-1.737l-.273-2.623-4.535-.546-.874 2.47a19.79 19.79 0 0 0-4.6.645l-1.552-2.087-4.207 1.792.47 2.579a20.1 20.1 0 0 0-3.661 2.852l-2.415-1.093-2.732 3.661 1.694 1.989a19.889 19.889 0 0 0-1.748 4.305zm10.523 3.628a11.343 11.343 0 1 1 9.922 12.61 11.354 11.354 0 0 1-9.922-12.61z" transform="translate(-48.281 -56.733)" style="fill:#263238"/>
            <path data-name="Path 21130" d="M391.577 332.453V322.17l-5.737-1.3a44.289 44.289 0 0 0-2.666-10.119l4.371-4.032-5.158-8.96-5.639 1.781a45.053 45.053 0 0 0-7.365-7.42l1.781-5.693-8.928-5.147-3.989 4.294a44.277 44.277 0 0 0-10.1-2.743l-1.311-5.792h-10.279l-1.311 5.748a43.873 43.873 0 0 0-10.119 2.666l-4.032-4.371-8.906 5.136 1.737 5.639a44.985 44.985 0 0 0-7.42 7.354l-5.682-1.759-5.136 8.895 4.305 4.01a44.334 44.334 0 0 0-2.743 10.086l-5.792 1.322v10.283l5.737 1.311a44.922 44.922 0 0 0 2.666 10.108l-4.371 4.043 5.147 8.928 5.628-1.737a44.57 44.57 0 0 0 7.387 7.387l-1.759 5.693 8.939 5.147 3.988-4.371a44.006 44.006 0 0 0 10.042 2.754l1.311 5.792h10.294l1.3-5.737a44.991 44.991 0 0 0 10.13-2.688l4.032 4.371 8.928-5.147-1.737-5.628a44.572 44.572 0 0 0 7.42-7.354l5.682 1.759 5.147-8.939-4.316-4a44.869 44.869 0 0 0 2.754-10.1zm-17.777-5.311a32.28 32.28 0 1 1-32.28-32.28 32.28 32.28 0 0 1 32.28 32.28z" transform="translate(-37.12 -50.521)" style="fill:#fff"/>
            <path data-name="Rectangle 5477" transform="translate(149.306 26.667)" style="fill:#007bc0" d="M0 0h26.488v6.108H0z"/>
            <path data-name="Rectangle 5478" transform="translate(149.306 35.496)" style="fill:#007bc0" d="M0 0h17.407v6.108H0z"/>
            <path data-name="Rectangle 5479" transform="translate(149.306 44.326)" style="fill:#007bc0" d="M0 0h10.02v6.108H0z"/>
            <path data-name="Rectangle 5480" transform="translate(149.306 26.667)" style="opacity:.2" d="M0 0h26.488v6.108H0z"/>
            <path data-name="Rectangle 5481" transform="translate(149.306 35.496)" style="opacity:.2" d="M0 0h17.407v6.108H0z"/>
            <path data-name="Rectangle 5482" transform="translate(149.306 44.326)" style="opacity:.2" d="M0 0h10.02v6.108H0z"/>
            <path data-name="Rectangle 5483" transform="translate(103.312 94.33)" style="fill:#007bc0" d="M0 0h8.982v18.402H0z"/>
            <path data-name="Rectangle 5484" transform="translate(116.283 100.657)" style="fill:#007bc0" d="M0 0h8.982v12.086H0z"/>
            <path data-name="Rectangle 5485" transform="translate(129.265 105.782)" style="fill:#007bc0" d="M0 0h8.982v6.961H0z"/>
            <path data-name="Rectangle 5486" transform="translate(103.312 94.33)" style="opacity:.2" d="M0 0h8.982v18.402H0z"/>
            <path data-name="Rectangle 5487" transform="translate(116.283 100.657)" style="opacity:.2" d="M0 0h8.982v12.086H0z"/>
            <path data-name="Rectangle 5488" transform="translate(129.265 105.782)" style="opacity:.2" d="M0 0h8.982v6.961H0z"/>
            <path data-name="Path 21131" d="M261.136 195.208H152.375A11.354 11.354 0 0 1 141 183.854v-89.79a11.375 11.375 0 0 1 11.354-11.354h108.76a11.365 11.365 0 0 1 11.376 11.354v89.791a11.354 11.354 0 0 1-11.354 11.354zM152.375 83.748a10.381 10.381 0 0 0-10.359 10.359V183.9a10.381 10.381 0 0 0 10.359 10.359h108.761A10.381 10.381 0 0 0 271.5 183.9V94.064A10.381 10.381 0 0 0 261.136 83.7z" transform="translate(-51.074 -68.544)" style="fill:#263238"/>
            <path data-name="Rectangle 5489" transform="translate(169.882 94.832)" style="fill:#263238" d="M0 0h38.781v.994H0z"/>
            <path data-name="Rectangle 5490" transform="translate(169.882 98.996)" style="fill:#263238" d="M0 0h38.781v.994H0z"/>
            <path data-name="Rectangle 5491" transform="translate(169.882 103.148)" style="fill:#263238" d="M0 0h38.781v.994H0z"/>
            <path data-name="Rectangle 5492" transform="translate(169.882 107.3)" style="fill:#263238" d="M0 0h38.781v.994H0z"/>
            <path data-name="Rectangle 5493" transform="translate(169.882 111.453)" style="fill:#263238" d="M0 0h38.781v.994H0z"/>
            <path data-name="Rectangle 5494" transform="translate(102.121 27.082)" style="fill:#263238" d="M0 0h38.781v.994H0z"/>
            <path data-name="Rectangle 5495" transform="translate(102.121 31.235)" style="fill:#263238" d="M0 0h38.781v.994H0z"/>
            <path data-name="Rectangle 5496" transform="translate(102.121 35.387)" style="fill:#263238" d="M0 0h38.781v.994H0z"/>
            <path data-name="Rectangle 5497" transform="translate(102.121 39.539)" style="fill:#263238" d="M0 0h38.781v.994H0z"/>
            <path data-name="Rectangle 5498" transform="translate(102.121 43.692)" style="fill:#263238" d="M0 0h38.781v.994H0z"/>
            <path data-name="Path 21132" d="m250.542 126.584 6.95 3.65-.8-19.6-16.577 10.49 6.95 3.639-5.234 9.955a4.131 4.131 0 0 0-2.546.874l-9.234-4.273v-.055a4.24 4.24 0 1 0-8.469-.415 2.631 2.631 0 0 0 0 .415 4.425 4.425 0 0 0 .382 1.759l-12.02 13.113a4.043 4.043 0 0 0-1.191-.186 3.015 3.015 0 0 0-.623.066l-17.309-21.975a4.229 4.229 0 0 0-7.737-3.4 4.054 4.054 0 0 0-.361 1.683 4.687 4.687 0 0 0 .219 1.279l-19.724 20.216a4.229 4.229 0 1 0 2.524 5.464 4.371 4.371 0 0 0 .251-1.453 3.693 3.693 0 0 0-.142-1.027l19.949-20.47a3.857 3.857 0 0 0 1.213.2 3.74 3.74 0 0 0 .776-.077L205 148.308a4.276 4.276 0 1 0 7.518 4.076 4.185 4.185 0 0 0 .514-1.8 2.775 2.775 0 0 0 0-.426 4.372 4.372 0 0 0-.219-1.3l12.3-13.4a3.9 3.9 0 0 0 .71.066 4.229 4.229 0 0 0 2.36-.721l9.4 4.371a4.229 4.229 0 1 0 8.448-.4 4.185 4.185 0 0 0-.755-2.185z" transform="translate(-49.539 -65.955)" style="fill:#263238"/>
            <path data-name="Path 21133" d="M251.717 196.272a6.458 6.458 0 0 0-6.447 6.458v55.959a6.447 6.447 0 0 0 6.447 6.447h67.75a6.458 6.458 0 0 0 6.458-6.447V202.7a6.458 6.458 0 0 0-6.458-6.447z" transform="translate(-41.404 -58.014)" style="stroke-linejoin:round;stroke:#263238;fill:none"/>
            <path data-name="Rectangle 5499" transform="translate(209.21 145.885)" style="fill:#263238" d="M0 0h5.147v.688H0z"/>
            <path data-name="Rectangle 5500" transform="translate(209.21 151.502)" style="fill:#263238" d="M0 0h5.147v.688H0z"/>
            <path data-name="Rectangle 5501" transform="translate(209.21 157.119)" style="fill:#263238" d="M0 0h5.147v.688H0z"/>
            <path data-name="Rectangle 5502" transform="translate(209.21 162.746)" style="fill:#263238" d="M0 0h5.147v.688H0z"/>
            <path data-name="Rectangle 5503" transform="translate(209.013 151.502)" style="fill:#263238" d="M0 0h5.147v.688H0z"/>
            <path data-name="Rectangle 5504" transform="translate(209.21 168.363)" style="fill:#263238" d="M0 0h5.147v.688H0z"/>
            <path data-name="Path 21134" d="M287.812 255.83a24.685 24.685 0 1 0-24.172-25.13 24.685 24.685 0 0 0 24.172 25.13zm.863-42.114a17.484 17.484 0 1 1-17.834 17.123 17.484 17.484 0 0 1 17.834-17.123z" transform="translate(-39.7 -57.067)" style="fill:#007bc0"/>
            <path data-name="Path 21135" d="M287.812 255.83a24.685 24.685 0 1 0-24.172-25.13 24.685 24.685 0 0 0 24.172 25.13zm.863-42.114a17.484 17.484 0 1 1-17.834 17.123 17.484 17.484 0 0 1 17.834-17.123z" transform="translate(-39.7 -57.067)" style="opacity:.2"/>
            <path data-name="Path 21136" d="M270.622 248.859a25.133 25.133 0 0 0 35.547.153.524.524 0 0 0 0-.7l-5.125-5.158a.492.492 0 0 0-.35-.153.623.623 0 0 0-.361.142 16.784 16.784 0 0 1-12.326 4.928h-1.213a16.883 16.883 0 0 1-10.064-4.054c-.251-.229-.514-.459-.754-.7a17.254 17.254 0 0 1-1.912-22.15.446.446 0 0 0 .055-.1c.109-.153.229-.284.361-.437a16.9 16.9 0 0 1 14.206-6.4.492.492 0 0 0 .5-.481l.142-7.245a.5.5 0 0 0-.481-.514 25.133 25.133 0 0 0-18.227 42.868z" transform="translate(-39.732 -57.111)" style="fill:#263238"/>
            <path data-name="Path 21137" d="M288.873 206a25.69 25.69 0 1 1-.055 0zm-1.005 49.359a24.193 24.193 0 1 0-23.691-24.674 24.2 24.2 0 0 0 23.691 24.685zm.863-42.114a17.943 17.943 0 1 1-18.3 17.571 17.943 17.943 0 0 1 18.3-17.571zm-.71 34.869a16.948 16.948 0 1 0-16.6-17.287 16.948 16.948 0 0 0 16.6 17.276z" transform="translate(-39.745 -57.11)" style="fill:#263238"/>
            <path data-name="Line 23904" transform="translate(121.255 227.71)" style="stroke-width:.879px;stroke-linecap:round;stroke-linejoin:round;stroke:#263238;fill:none" d="M0 0v66.286"/>
            <path data-name="Rectangle 5505" transform="translate(126.282 252.723)" style="fill:#263238" d="M0 0h5.628v37.951H0z"/>
            <path data-name="Rectangle 5506" transform="translate(134.324 268.207)" style="fill:#007bc0" d="M0 0h5.628v22.456H0z"/>
            <path data-name="Rectangle 5507" transform="translate(143.776 240.451)" style="stroke-width:.879px;stroke-linejoin:round;stroke:#263238;fill:#fff" d="M0 0h5.628v50.222H0z"/>
            <path data-name="Rectangle 5508" transform="translate(159.468 233.206)" style="fill:#263238" d="M0 0h5.628v57.456H0z"/>
            <path data-name="Rectangle 5509" transform="translate(167.522 276.457)" style="fill:#007bc0" d="M0 0h5.628v14.217H0z"/>
            <path data-name="Rectangle 5510" transform="translate(176.974 256.744)" style="stroke-width:.879px;stroke-linejoin:round;stroke:#263238;fill:#fff" d="M0 0h5.628v33.93H0z"/>
            <path data-name="Rectangle 5511" transform="translate(199.9 261.935)" style="fill:#263238" d="M0 0h5.628v28.728H0z"/>
            <path data-name="Rectangle 5512" transform="translate(207.953 239.643)" style="fill:#007bc0" d="M0 0h5.628v51.02H0z"/>
            <path data-name="Rectangle 5513" transform="translate(217.405 250.909)" style="stroke-width:.879px;stroke-linejoin:round;stroke:#263238;fill:#fff" d="M0 0h5.628v39.754H0z"/>
            <path data-name="Line 23905" transform="translate(115.212 281.888)" style="stroke-width:.879px;stroke-linecap:round;stroke-linejoin:round;stroke:#263238;fill:none" d="M0 0h3.147"/>
            <path data-name="Line 23906" transform="translate(115.212 273.703)" style="stroke-width:.879px;stroke-linecap:round;stroke-linejoin:round;stroke:#263238;fill:none" d="M0 0h3.147"/>
            <path data-name="Line 23907" transform="translate(115.212 265.53)" style="stroke-width:.879px;stroke-linecap:round;stroke-linejoin:round;stroke:#263238;fill:none" d="M0 0h3.147"/>
            <path data-name="Line 23908" transform="translate(115.212 257.345)" style="stroke-width:.879px;stroke-linecap:round;stroke-linejoin:round;stroke:#263238;fill:none" d="M0 0h3.147"/>
            <path data-name="Line 23909" transform="translate(115.212 249.16)" style="stroke-width:.879px;stroke-linecap:round;stroke-linejoin:round;stroke:#263238;fill:none" d="M0 0h3.147"/>
            <path data-name="Line 23910" transform="translate(115.212 240.976)" style="stroke-width:.879px;stroke-linecap:round;stroke-linejoin:round;stroke:#263238;fill:none" d="M0 0h3.147"/>
            <path data-name="Line 23911" transform="translate(115.212 232.791)" style="stroke-width:.879px;stroke-linecap:round;stroke-linejoin:round;stroke:#263238;fill:none" d="M0 0h3.147"/>
            <path data-name="Line 23912" transform="translate(117.529 290.674)" style="stroke-width:.879px;stroke-linecap:round;stroke-linejoin:round;stroke:#263238;fill:none" d="M0 0h109.449"/>
            <path data-name="Rectangle 5514" transform="translate(134.324 268.207)" style="opacity:.3" d="M0 0h5.628v22.456H0z"/>
            <path data-name="Rectangle 5515" transform="translate(167.522 276.457)" style="opacity:.3" d="M0 0h5.628v14.217H0z"/>
            <path data-name="Rectangle 5516" transform="translate(207.953 239.643)" style="opacity:.3" d="M0 0h5.628v51.02H0z"/>
            <path data-name="Path 21138" d="M160.654 269.713a7.125 7.125 0 0 0-7.114 7.114v65.029a7.136 7.136 0 0 0 7.114 7.125h120.693a7.147 7.147 0 0 0 7.125-7.125V276.8a7.136 7.136 0 0 0-7.125-7.125z" transform="translate(-49.911 -51.204)" style="stroke-linejoin:round;stroke:#263238;fill:none"/>
            <g>
                <path data-name="Path 21139" d="M73.9 403.168s2.524 16.85-3.584 18.577-10.348-.546-11.113-3.071 4.647-20.554 4.647-20.554z" transform="translate(-58.667 -39.292)" style="fill:#fff"/>
                <path data-name="Path 21140" d="m171.063 406.535 26.554 6.294s2.011 1.093 1.792 2.9-12.337 6.425-15.735 7-23.013 3.136-25.8.743 3.1-21.472 3.1-21.472z" transform="translate(-49.579 -38.932)" style="fill:#fff"/>
                <path data-name="Path 21141" d="M127.79 124.953s3.737 5.639 3.792 8.491-.3 6.108 1.453 7.791 3.092 3.519 2.371 4.371-2.109 2.513-2.109 2.513 1.8 9.605-.535 11.343-9.365 0-9.365 0v6.207s-9.988-3.278-16.883-2.666l-1.224-13.3s14.981-28.803 22.5-24.75z" transform="translate(-54.386 -64.663)" style="fill:#fff"/>
                <path data-name="Path 21142" d="M182.205 163.264s-.9-6.819 2.426-10.927c0 0-3.978-.677-3.5-2.12s6.556.448 6.556.448l-1.639-3.278s-5.737-1.9-5.027-3.683 9.124 2.6 9.124 2.6-4.994-4.174-4.294-5.912 5.781-1.7 8.491 7.3l1.377-1.716s.492-10.25 1.9-10.807c0 0 2.185 1.2 2.185 7.092 0 0 2.185 2.634.8 4.863s-4.655 7.245-7.431 9.124-2.765 9.212-2.765 9.212z" transform="translate(-47.368 -63.679)" style="fill:#fff"/>
                <path data-name="Path 21143" d="m102.394 112.127 1.257-1.683s14.064-6.272 13.714-8.228-8.316.743-9.835-.3c0 0 1.453-18.511 0-19.112s-3.07 8.696-3.07 8.696-2.043-9.529-3.617-9.256-.918 9.835-.918 9.835-3.005-6.13-4.174-5.562.579 8.043.579 8.043-2.185-2.568-3.06-1.792a28.968 28.968 0 0 0 3.114 11.07l-3.038 5.136z" transform="translate(-55.501 -68.588)" style="fill:#fff"/>
                <path data-name="Path 21144" d="m191.306 166.106 9.694 1.355s-7.092 60.1-9.179 67.521-3.967 12.752-11.091 13.113-32.509-20.981-32.509-20.981l-1.18 29.5 1.65 12.239s-31.045 16.315-62.614 2.12l.71-14.359-11.377-65.67-8.95-31.187L95.341 105l10.468 5.464L87.342 160.3l5.169 16.642 5.781-2.317 6.393-8.152s10.84-5.628 24.554 2.185l2.185 6.841s16.085 1.213 43.24 38.858z" transform="translate(-57.988 -66.477)" style="fill:#007bc0"/>
                <path data-name="Path 21145" d="m117.3 160.92 1.224 8.414s9.026 5.988 12.654 8.064c0 0 8.873 56.036 2.306 67.062l-6.917 10.829s7.07 0 10.326-4.95c0 0-4.054 13.528-14.566 17.167 0 0 16.14-1.683 21.691-3.825l-1.65-12.239 2.655-68.242s2.5-4.568-18.3-12.752l-3.071-7.376z" transform="translate(-53.273 -61.291)" style="opacity:.2"/>
                <path data-name="Path 21146" d="M126.253 125.62s3.387 4.961 3.792 7.726-.8 5.813 1.453 7.791 3.278 3.278 2.371 4.371-2.109 2.513-2.109 2.513.918 9.365-.535 11.343-9.365 0-9.365 0v6.207" transform="translate(-52.85 -64.565)" style="stroke-linecap:round;stroke-linejoin:round;stroke:#263238;fill:none"/>
                <path data-name="Path 21147" d="M122.411 146.293s-3.169-8.185-5.54-6.207-.262 12.8 5.54 10.425" transform="translate(-53.401 -63.251)" style="stroke-linecap:round;stroke-linejoin:round;stroke:#263238;fill:none"/>
                <path data-name="Path 21148" d="M123.826 147.036s3.77-.306 1.388-9.146 2.776-7.649 8.316-10.162 6.862-7.125 5.671-9.889-3.169-4.229-10.163-2.907c0 0-7.649-8.84-15.036.929 0 0-16.632-.262-21.112 7.649s1.453 28.105 10.163 34.837 17.222 1.344 18.992-4.983c0 0-5.934-3.2-2.9-10.589.004-.044 2.768-1.028 4.681 4.261z" transform="translate(-55.679 -65.896)" style="fill:#263238"/>
                <path data-name="Path 21149" d="M73.86 180.191s40.246-29.187 75.323 0l-2.83 70.613L148 263.043s-29.657 13.889-62.614 2.12L86.1 250.8z" transform="translate(-57.301 -60.707)" style="stroke-linecap:round;stroke-linejoin:round;stroke:#263238;fill:none"/>
                <path data-name="Path 21150" d="m95.1 170.262 6.928-8.829s13.583-4.7 24.554 2.185l2.185 6.841" transform="translate(-55.331 -61.388)" style="stroke-linecap:round;stroke-linejoin:round;stroke:#263238;fill:none"/>
                <path data-name="Line 23913" transform="translate(91.881 119.484)" style="stroke-linecap:round;stroke-linejoin:round;stroke:#263238;fill:none" d="m0 0 35.044 40.3"/>
                <path data-name="Path 21151" d="M141.31 221.1s23.221 21.6 32.476 21.855 10.8-10.927 10.8-10.927l9.474-69.717-9.693-1.355-16.675 48.332" transform="translate(-51.046 -61.287)" style="stroke-linecap:round;stroke-linejoin:round;stroke:#263238;fill:none"/>
                <path data-name="Path 21152" d="M189.818 163.765s1.213-7.879 4.371-9.671 6.906-8.742 5.7-10.742-4.874 4.5-8.185 5.748-6 7.365-6.458 10.02" transform="translate(-46.971 -62.955)" style="stroke-linecap:round;stroke-linejoin:round;stroke:#263238;fill:none"/>
                <path data-name="Path 21153" d="M198.023 143.8s0-9.1-1.672-8.676-1.9 11.955-1.9 11.955" transform="translate(-46.117 -63.685)" style="stroke-linecap:round;stroke-linejoin:round;stroke:#263238;fill:none"/>
                <path data-name="Path 21154" d="M194.067 147.9s-1.093-5.1-4.1-7.595-4.885-1.147-4.546-.306 5.464 7.649 5.344 9.966" transform="translate(-46.958 -63.336)" style="stroke-linecap:round;stroke-linejoin:round;stroke:#263238;fill:none"/>
                <path data-name="Path 21155" d="M189.272 145.01s-8.25-3.781-8.272-1.519 5.027 3.136 5.027 3.136l1.639 3.278s-6.95-2.185-6.556-.448 3.5 2.12 3.5 2.12-3.377 3.344-2.426 10.927" transform="translate(-47.365 -62.974)" style="stroke-linecap:round;stroke-linejoin:round;stroke:#263238;fill:none"/>
                <path data-name="Path 21156" d="m144.439 255.792 2.109 14.774s19.418 58.254 22.368 69.641 4.644 37.153 5.464 48.966 7.649 31.69 7.649 31.69-.841 8.021-15.189 6.753c0 0-5.912-23.636-12.239-37.568s-7.256-35.066-7.256-35.066l-30.815-56.56s-6.305 32.935-10.545 45.163c-4.371 12.61-34.17 82.579-32.083 77.672 0 0-4.218 2.535-13.113-3.8 0 0 6.327-21.1 8.01-32.5s10.556-37.569 10.556-37.569S81.465 298 84.819 282.8c0 0-2.185-16.741 2.481-28.564a100.445 100.445 0 0 0 57.14 1.552z" transform="translate(-58.513 -52.636)" style="fill:#263238"/>
                <path data-name="Path 21157" d="m96.35 285.59 13.834 4.021 2.011 4.906" transform="translate(-55.216 -49.728)" style="stroke:#fff;stroke-linecap:round;stroke-linejoin:round;fill:none"/>
                <path data-name="Path 21158" d="M158.2 411.749s-1.869 9.365-.339 11.288c.809 1.005 3.213.82 4.371.841 2.666.055 5.344-.12 8.01-.3 5.333-.35 10.8-.3 15.943-1.945a50.717 50.717 0 0 0 12.315-5.584c2.1-1.4 0-3.661 0-3.661l-25.406-5.7" transform="translate(-49.567 -38.497)" style="stroke-linecap:round;stroke-linejoin:round;stroke:#263238;fill:none"/>
                <path data-name="Path 21159" d="M158 419.253s28.553 4.688 40.431-7.343" transform="translate(-49.498 -38.013)" style="stroke-linecap:round;stroke-linejoin:round;stroke:#263238;fill:none"/>
                <path data-name="Path 21160" d="M62.042 402.74s-3.278 11.244-2.8 14.785 4.032 4.371 8.185 4.273 5.857-1.956 6.469-4.764 0-11.889 0-11.889" transform="translate(-58.661 -38.864)" style="stroke-linecap:round;stroke-linejoin:round;stroke:#263238;fill:none"/>
                <path data-name="Line 23914" transform="translate(.539 376.946)" style="stroke-linecap:round;stroke-linejoin:round;stroke:#263238;fill:none" d="m0 0 14.697 1.224"/>
                <path data-name="Path 21161" d="M94.414 107.469c1.246-2.273 1.978-3.661 1.978-3.661s-4.054-9.8-3.038-11 3.366 2.182 3.366 2.182-2.4-7.791-.885-8.458 4.229 6.556 4.229 6.556-.71-10.436.863-10.927 3.464 9.922 3.464 9.922 2.033-9.266 3.278-9.354 0 19.112 0 19.112c2.513 1.235 9.9-1.781 9.835.656S103.3 110.54 103.3 110.54a6.316 6.316 0 0 0-.645 1.027" transform="translate(-55.509 -68.597)" style="stroke-linecap:round;stroke-linejoin:round;stroke:#263238;fill:none"/>
                <path data-name="Path 21162" d="m74.546 185.959-8.086-26.2 28.881-54.729 10.469 5.47-18.467 49.84 5.169 16.642" transform="translate(-57.988 -66.474)" style="stroke-linecap:round;stroke-linejoin:round;stroke:#263238;fill:none"/>
                <path data-name="Path 21163" d="M74.8 151.32s10.359-.087 11.856 4.732a20.762 20.762 0 0 0-12.8 3.54" transform="translate(-57.301 -62.181)" style="stroke-linecap:round;stroke-linejoin:round;stroke:#263238;fill:none"/>
                <path data-name="Line 23915" transform="translate(51.723 91.314)" style="stroke-linecap:round;stroke-linejoin:round;stroke:#263238;fill:none" d="M0 7.595V0"/>
                <path data-name="Path 21164" d="m142.756 198.43 2.59 17.233s2.12-11.244 3.442-11.244 0 13.178 0 13.178 21.724 19.669 31.121 19.779c0 0-5.223 3.672-10.458.94s-28.182-20.762-28.182-20.762z" transform="translate(-51.049 -57.812)" style="opacity:.2"/>
                <path data-name="Path 21165" d="M103.266 109.15 83.4 157.406s-6.917-.109-9.54 6.1l10.621-1.9 3.573 16.391 3.77-1.431-5.169-16.642 18.467-49.84z" transform="translate(-57.301 -66.092)" style="opacity:.2"/>
            </g>
            <g>
                <path data-name="Path 21166" d="m354.584 188.228-7.824-16.708-30.75 20.314 25.374 44.955 19.79-11.233z" transform="translate(-34.843 -60.307)" style="fill:#fff"/>
                <path data-name="Path 21167" d="M376.017 319.576s4.972 13.8 5.7 20.522-1.508 35.022-1.027 42.825 4.7 31.089 4.7 31.089-20.686 15.036-27.253 10.2c0 0 14.577-11.8 16.052-16.5l-4.721-31.9-4.688-37.721s-1.191-7.879-2.852-11.933-1.41-12.654-1.41-12.654z" transform="translate(-30.936 -47.139)" style="fill:#fff"/>
                <path data-name="Path 21168" d="M375.745 318.393s5.376 14.533 6.633 24.969-2.524 34.1-1.279 45.5 2.524 17.7 4.732 23.7l-1.093 17.6h-2.83l-1.093-9.988s-4.437-1.847-7.125 4.546-12.621 7.234-17.331 3.53c0 0 0-2.863 3.54-5.387s12.785-10.414 14.468-15.124c0 0-5.048-32.782-6.229-43.4s-3.027-29.93-5.387-36.159-2.351-15.13-2.351-15.13" transform="translate(-31.101 -47.181)" style="stroke-linecap:round;stroke-linejoin:round;stroke:#263238;fill:none"/>
                <path data-name="Path 21169" d="M384.5 401.1s-13.867 15.08-25.5 14.982" transform="translate(-30.856 -39.015)" style="stroke-linecap:round;stroke-linejoin:round;stroke:#263238;fill:none"/>
                <path data-name="Path 21170" d="M358.32 416.012a12.3 12.3 0 0 0 5.68-.712c3.136-1.093 14.424-6.556 19.975-13.452l1.7 1.934-.9 17.746-2.852.4-1.093-9.988s-3.65-1.672-6 2.437-4.043 6.928-8.152 7.835-10.3-2.185-10.3-2.185-1.078-1.622 1.942-4.015z" transform="translate(-31.116 -38.946)" style="fill:#263238"/>
                <path data-name="Path 21171" d="M383.35 319.746a126.7 126.7 0 0 0 4.742 14.107c2.481 5.693 23.909 63.27 23.909 63.27s1.628 31.165 10.753 31.067-.361-21.778-.361-21.778l-5.551-11.878s-2.12-34.891-4.742-47.72l-11.168-30.084z" transform="translate(-28.598 -46.84)" style="fill:#fff"/>
                <path data-name="Path 21172" d="M401.209 318.16s9.168 20.86 11.059 29.078 3.792 45.185 4.743 47.72 16.118 29.384 6.95 34.76-11.332-30.968-11.332-30.968-21.166-58.79-24.335-64.472-6.633-22.128-6.633-22.128z" transform="translate(-28.754 -47.265)" style="stroke-linecap:round;stroke-linejoin:round;stroke:#263238;fill:none"/>
                <path data-name="Path 21173" d="M422.913 407.13s-.634 7.278-3.038 8.3-7.715-7.179-7.715-7.179" transform="translate(-25.926 -38.456)" style="stroke-linecap:round;stroke-linejoin:round;stroke:#263238;fill:none"/>
                <path data-name="Path 21174" d="M412.18 409.382s3.278 12.414 7.649 11.889 5.158-7.42 3.092-12.741c0 0-.732 5.464-3.038 6.775-2.327.033-7.703-5.923-7.703-5.923z" transform="translate(-25.924 -38.326)" style="fill:#263238"/>
                <path data-name="Path 21175" d="M379.364 218.35s11.048 15.08 18.708 39.339 6.873 70.722 6.873 70.722-28.51 9.168-56.145-2.481l5.059-104.685s17.779.329 25.505-2.895z" transform="translate(-31.802 -55.964)" style="fill:#263238"/>
                <path data-name="Path 21176" d="M364.86 118.27s-8.589 8.043-9.594 13.31a41.318 41.318 0 0 1-3.956 10.567 7.7 7.7 0 0 0 3.857 3.016s.557 10.785 3.693 11.616l7.5-1.967.8 4.622 10.753-4.087v-6.229l8.2-5.354-2.918-14-13.331-6.229z" transform="translate(-31.569 -65.246)" style="fill:#fff"/>
                <path data-name="Path 21177" d="m353.9 226.767-.951-15.124s-6.994-13.113-4.775-17.877c2.448-5.234 17.156-24.619 17.156-24.619l-1.442-10.578 20.612-8.829.983 8.829-2.491 1.847 2.765 5.923s.175-1.759 4.961 7.168 22.816 40.693 24.236 46.793-28.04 27.581-37.984 32.651c0 0-1.147-2.459-12.96 6.556-3.005-.525-7.157-3.224-8.043-4.9s3.4-5.649 3.4-5.649 2.579-4.874 7.136-.973h4.852l27.767-25.843-14.075-20.6-5.584 23.133s-18.063 5.491-25.563 2.092z" transform="translate(-31.9 -62.327)" style="fill:#fff"/>
                <path data-name="Path 21178" d="m362.52 158.569 1.48 10.808 20.117-10.807-.983-8.829z" transform="translate(-30.53 -62.327)" style="stroke-linecap:round;stroke-linejoin:round;stroke:#263238;fill:none"/>
                <path data-name="Path 21179" d="M365.383 167.71s-18.3 22.39-17.812 26.8 5.4 15.462 5.4 15.462l1.005 15.954s14.807.4 25.5-2.885l5.584-23.133" transform="translate(-31.917 -60.66)" style="stroke-linecap:round;stroke-linejoin:round;stroke:#263238;fill:none"/>
                <path data-name="Path 21180" d="m397.215 220.871-28.357-42.748s-2.786-9.835 3.923-13.342 12.545.94 14.632 3.278 24.6 45.709 25.647 50.922-22.729 26.062-36.487 31.69c0 0-6.261 3.759-6.261-3.956z" transform="translate(-29.995 -61.053)" style="stroke-linecap:round;stroke-linejoin:round;stroke:#263238;fill:none"/>
                <path data-name="Line 23916" transform="translate(350.928 97.674)" style="stroke-linecap:round;stroke-linejoin:round;stroke:#263238;fill:none" d="M2.655 6.338 0 0"/>
                <path data-name="Path 21181" d="M371.53 239.84h-5.7s-4.447-3.978-6.556 0-4.775 4.764-3.978 6.622 5.365 5.562 8.043 4.9 10.228-6.808 10.228-6.808" transform="translate(-31.213 -54.135)" style="stroke-linecap:round;stroke-linejoin:round;stroke:#263238;fill:none"/>
                <path data-name="Path 21182" d="M362.806 120.86s-6.7 5.857-7.442 9.1-.426 8.742-4.054 11.944c0 0 .186 2.623 3.857 3.016 0 0 1.88 10.348 3.693 11.616s12.916-4.458 17.265-6.819a5.759 5.759 0 0 0 2.284-3.18" transform="translate(-31.569 -65.005)" style="stroke-linecap:round;stroke-linejoin:round;stroke:#263238;fill:none"/>
                <path data-name="Path 21183" d="M357.07 146.031a8.436 8.436 0 0 0 5.2-3.071" transform="translate(-31.035 -62.956)" style="stroke-linecap:round;stroke-linejoin:round;stroke:#263238;fill:none"/>
                <path data-name="Path 21184" d="M357.07 132.109s2.644-1.541 4.1 1.016" transform="translate(-31.035 -64.005)" style="stroke-linecap:round;stroke-linejoin:round;stroke:#263238;fill:none"/>
                <path data-name="Path 21185" d="M358.856 137.233c0 .885-.251 1.606-.656 1.628s-.776-.677-.82-1.552.251-1.617.656-1.639.776.678.82 1.563z" transform="translate(-31.007 -63.632)" style="fill:#263238"/>
                <path data-name="Line 23917" transform="translate(334.788 89.566)" style="stroke-linecap:round;stroke-linejoin:round;stroke:#263238;fill:none" d="m0 0 .885 5.103"/>
                <path data-name="Path 21186" d="M375.469 139.249s1.639-3.18 3.464-1.322 5.289 10.447-4.054 8.4c0 0-.623 5.245 4.054 6.556s13.561-5.923 13.856-18.26-11.616-20.664-17.91-18.282c0 0-9.124-14.3-18.172-8.206s-2.95 15.484-4.874 17.6-6.032.131-6.163 5.824 9.387 5.114 9.387 5.114l1.147-6.272 7.879-8.228s-1.858 5.945 1.3 11.113c2.852 4.662 10.086 5.963 10.086 5.963z" transform="translate(-32.092 -66.326)" style="fill:#263238"/>
                <path data-name="Path 21187" d="M390.6 133.022s4.371.983 3.89 6.9-10.348 20.445-9.605 28.816l25.467 47.462s11.463-2.185 10.927-13.987-14.523-21.746-11.823-30.444 13.3-30.848-1.716-43.546-38.421 6.764-38.421 6.764l11.463-3.693z" transform="translate(-29.899 -64.721)" style="fill:#263238"/>
                <path data-name="Path 21188" d="m353.6 187.255-6.84-15.735-30.75 20.314 25.374 44.955 15.386-8.469" transform="translate(-34.843 -60.307)" style="stroke-linecap:round;stroke-linejoin:round;stroke:#263238;fill:none"/>
                <path data-name="Path 21189" d="M324.821 211.449s-1.661-3.431.557-5.322 9.835-7.5 9.835-6.119a2.4 2.4 0 0 1-.525 1.89c-2.186 2.929-7.42 7.649-7.081 8.032 0 0 9.551-6.338 10.468-5.737.229.153.1.973-.7 1.77a82.648 82.648 0 0 1-8.272 6.469s10.075-3.9 11.375-3.278c.372.175.3.743-.874 1.453a91.9 91.9 0 0 1-9.015 4.284l2.524 4.218s-4.763.831-8.292-7.66z" transform="translate(-34.081 -57.685)" style="stroke-linecap:round;stroke-linejoin:round;stroke:#263238;fill:#fff"/>
                <path data-name="Line 23918" transform="translate(345.639 83.075)" style="stroke-linejoin:round;stroke:#263238;fill:none" d="m0 0 .699 7.026"/>
            </g>
        </g>
    </g>
</svg>
